HIERARCHY
ROOT hip
{
  OFFSET 0 0 0
  CHANNELS 6 Xposition Yposition Zposition Zrotation Yrotation Xrotation
  JOINT abdomen
  {
    OFFSET 0 20.6881 -0.73152
    CHANNELS 3 Zrotation Xrotation Yrotation
    JOINT chest
    {
      OFFSET 0 11.7043 -0.48768
      CHANNELS 3 Zrotation Xrotation Yrotation
      JOINT neck
      {
        OFFSET 0 22.1894 -2.19456
        CHANNELS 3 Zrotation Xrotation Yrotation
        JOINT head
        {
          OFFSET -0.24384 7.07133 1.2192
          CHANNELS 3 Zrotation Xrotation Yrotation
          JOINT leftEye
          {
            OFFSET 4.14528 8.04674 8.04672
            CHANNELS 3 Zrotation Xrotation Yrotation
            End Site
            {
              OFFSET 1 0 0
            }
          }
          JOINT rightEye
          {
            OFFSET -3.6576 8.04674 8.04672
            CHANNELS 3 Zrotation Xrotation Yrotation
            End Site
            {
              OFFSET 1 0 0
            }
          }
        }
      }
      JOINT rCollar
      {
        OFFSET -2.68224 19.2634 -4.8768
        CHANNELS 3 Zrotation Xrotation Yrotation
        JOINT rShldr
        {
          OFFSET -8.77824 -1.95073 1.46304
          CHANNELS 3 Zrotation Xrotation Yrotation
          JOINT rForeArm
          {
            OFFSET -28.1742 -1.7115 0.48768
            CHANNELS 3 Zrotation Xrotation Yrotation
            JOINT rHand
            {
              OFFSET -22.5879 0.773209 7.07136
              CHANNELS 3 Zrotation Xrotation Yrotation
              JOINT rThumb1
              {
                OFFSET -1.2192 -0.487915 3.41376
                CHANNELS 3 Zrotation Xrotation Yrotation
                JOINT rThumb2
                {
                  OFFSET -3.37035 -0.52449 3.41376
                  CHANNELS 3 Zrotation Xrotation Yrotation
                  End Site
                  {
                    OFFSET -1.78271 -1.18214 1.43049
                  }
                }
              }
              JOINT rIndex1
              {
                OFFSET -7.75947 0.938293 5.60832
                CHANNELS 3 Zrotation Xrotation Yrotation
                JOINT rIndex2
                {
                  OFFSET -2.54057 -0.884171 1.56538
                  CHANNELS 3 Zrotation Xrotation Yrotation
                  End Site
                  {
                    OFFSET -1.62519 -0.234802 1.16502
                  }
                }
              }
              JOINT rMid1
              {
                OFFSET -8.24714 1.18213 3.41376
                CHANNELS 3 Zrotation Xrotation Yrotation
                JOINT rMid2
                {
                  OFFSET -3.10165 -0.590103 1.0647
                  CHANNELS 3 Zrotation Xrotation Yrotation
                  End Site
                  {
                    OFFSET -2.48547 -0.328903 0.83742
                  }
                }
              }
              JOINT rRing1
              {
                OFFSET -8.82822 0.546677 1.51678
                CHANNELS 3 Zrotation Xrotation Yrotation
                JOINT rRing2
                {
                  OFFSET -2.60934 -0.819778 -0.0198488
                  CHANNELS 3 Zrotation Xrotation Yrotation
                  End Site
                  {
                    OFFSET -2.33842 -0.294052 0.168128
                  }
                }
              }
              JOINT rPinky1
              {
                OFFSET -8.27202 -0.0477905 -0.4584
                CHANNELS 3 Zrotation Xrotation Yrotation
                JOINT rPinky2
                {
                  OFFSET -1.82734 -0.647385 -0.700984
                  CHANNELS 3 Zrotation Xrotation Yrotation
                  End Site
                  {
                    OFFSET -1.69225 -0.51767 -0.607171
                  }
                }
              }
            }
          }
        }
      }
      JOINT lCollar
      {
        OFFSET 2.68224 19.2634 -4.8768
        CHANNELS 3 Zrotation Xrotation Yrotation
        JOINT lShldr
        {
          OFFSET 8.77824 -1.95073 1.46304
          CHANNELS 3 Zrotation Xrotation Yrotation
          JOINT lForeArm
          {
            OFFSET 28.1742 -1.7115 0.48768
            CHANNELS 3 Zrotation Xrotation Yrotation
            JOINT lHand
            {
              OFFSET 22.5879 0.773209 7.07136
              CHANNELS 3 Zrotation Xrotation Yrotation
              JOINT lThumb1
              {
                OFFSET 1.2192 -0.487915 3.41376
                CHANNELS 3 Zrotation Xrotation Yrotation
                JOINT lThumb2
                {
                  OFFSET 3.37035 -0.52449 3.41376
                  CHANNELS 3 Zrotation Xrotation Yrotation
                  End Site
                  {
                    OFFSET 1.78271 -1.18214 1.43049
                  }
                }
              }
              JOINT lIndex1
              {
                OFFSET 7.75947 0.938293 5.60832
                CHANNELS 3 Zrotation Xrotation Yrotation
                JOINT lIndex2
                {
                  OFFSET 2.54057 -0.884171 1.56538
                  CHANNELS 3 Zrotation Xrotation Yrotation
                  End Site
                  {
                    OFFSET 1.62519 -0.234802 1.16502
                  }
                }
              }
              JOINT lMid1
              {
                OFFSET 8.24714 1.18213 3.41376
                CHANNELS 3 Zrotation Xrotation Yrotation
                JOINT lMid2
                {
                  OFFSET 3.10165 -0.590103 1.0647
                  CHANNELS 3 Zrotation Xrotation Yrotation
                  End Site
                  {
                    OFFSET 2.48547 -0.328903 0.83742
                  }
                }
              }
              JOINT lRing1
              {
                OFFSET 8.82822 0.546677 1.51678
                CHANNELS 3 Zrotation Xrotation Yrotation
                JOINT lRing2
                {
                  OFFSET 2.60934 -0.819778 -0.0198488
                  CHANNELS 3 Zrotation Xrotation Yrotation
                  End Site
                  {
                    OFFSET 2.33842 -0.294052 0.168128
                  }
                }
              }
              JOINT lPinky1
              {
                OFFSET 8.27202 -0.0477905 -0.4584
                CHANNELS 3 Zrotation Xrotation Yrotation
                JOINT lPinky2
                {
                  OFFSET 1.82734 -0.647385 -0.700984
                  CHANNELS 3 Zrotation Xrotation Yrotation
                  End Site
                  {
                    OFFSET 1.69225 -0.51767 -0.607171
                  }
                }
              }
            }
          }
        }
      }
    }
  }
  JOINT rButtock
  {
    OFFSET -8.77824 4.35084 1.2192
    CHANNELS 3 Zrotation Xrotation Yrotation
    JOINT rThigh
    {
      OFFSET 0 -1.70687 -2.19456
      CHANNELS 3 Zrotation Xrotation Yrotation
      JOINT rShin
      {
        OFFSET 0 -36.8199 0.73152
        CHANNELS 3 Zrotation Xrotation Yrotation
        JOINT rFoot
        {
          OFFSET 0.73152 -45.1104 -5.12064
          CHANNELS 3 Zrotation Xrotation Yrotation
          End Site
          {
            OFFSET -1.1221 -3.69964 12.103
          }
        }
      }
    }
  }
  JOINT lButtock
  {
    OFFSET 8.77824 4.35084 1.2192
    CHANNELS 3 Zrotation Xrotation Yrotation
    JOINT lThigh
    {
      OFFSET 0 -1.70687 -2.19456
      CHANNELS 3 Zrotation Xrotation Yrotation
      JOINT lShin
      {
        OFFSET 0 -36.8199 0.73152
        CHANNELS 3 Zrotation Xrotation Yrotation
        JOINT lFoot
        {
          OFFSET -0.73152 -45.1104 -5.12064
          CHANNELS 3 Zrotation Xrotation Yrotation
          End Site
          {
            OFFSET 1.1221 -3.69964 12.103
          }
        }
      }
    }
  }
}
MOTION
Frames:	6
Frame Time:	0.03333
0.0 0.0 0.0 0.0 0.0 0.0 0.0 0.0 0.0 0.0 0.0 0.0 0.0 0.0 0.0 0.0 0.0 0.0 0.0 0.0 0.0 0.0 0.0 0.0 0.0 0.0 0.0 0.0 0.0 0.0 0.0 0.0 0.0 0.0 0.0 0.0 0.0 0.0 0.0 0.0 0.0 0.0 0.0 0.0 0.0 0.0 0.0 0.0 0.0 0.0 0.0 0.0 0.0 0.0 0.0 0.0 0.0 0.0 0.0 0.0 0.0 0.0 0.0 0.0 0.0 0.0 0.0 0.0 0.0 0.0 0.0 0.0 0.0 0.0 0.0 0.0 0.0 0.0 0.0 0.0 0.0 0.0 0.0 0.0 0.0 0.0 0.0 0.0 0.0 0.0 0.0 0.0 0.0 0.0 0.0 0.0 0.0 0.0 0.0 0.0 0.0 0.0 0.0 0.0 0.0 0.0 0.0 0.0 0.0 0.0 0.0 0.0 0.0 0.0 0.0 0.0 0.0 0.0 0.0 0.0 0.0 0.0 0.0 0.0 0.0 0.0 0.0 0.0 0.0 0.0 0.0 0.0
0.0189 51.022 -0.0222 -162.831694 22.289698 -168.348556 12.982261 5.19934 111.458712 -4.589453 -3.125366 -108.584726 11.247589 20.100081 84.215059 -30.268721 1.693897 -62.086189 -0.004037 -0.0 0.002229 0.001621 0.0 0.001633 -59.828386 -86.721928 -81.628812 -39.439959 11.922631 -30.602286 152.210492 14.717037 -51.276086 -23.000327 13.980132 3.646449 -2.813665 2.754323 0.498042 -16.264149 15.510842 15.659262 176.549622 -61.588233 114.66489 36.296616 -37.962647 -6.482392 -160.097153 -4.901381 142.968731 -163.355196 -5.001292 142.988155 0.001387 0.063645 0.020862 7.441121 26.544379 4.02184 -14.101607 -26.511513 -13.432289 -146.680445 11.201746 -143.447205 155.613721 -4.23641 -161.991101 32.134152 6.923106 22.141043 79.412643 -49.26104 120.541683 -31.480804 -43.394133 -27.773338 78.030921 38.690102 -42.412211 -45.205702 -37.487961 -20.191343 129.578007 16.761085 -108.785029 81.265121 56.093317 -60.29302 -0.04787 -0.138521 0.026951 -86.237755 -78.350983 -57.502722 145.119956 0.268052 179.211842 141.836396 -56.543957 163.978065 -1.134515 3.040492 -1.044445 40.240004 -49.979494 40.4601 -0.000976 -0.000175 -0.000976 -10.125371 13.132267 2.125651 8.72204 32.053771 32.787759 -20.987809 -3.046021 -71.312523 -179.997683 75.749817 -0.001585 -142.197599 -11.823796 75.20404 82.116758 16.826383 -160.35647 149.783772 -6.696601 -80.022565
0.031599999999999996 50.9693 -0.031599999999999996 -162.793346 22.218151 -168.294403 12.811078 6.218293 85.193739 -3.785704 -5.107234 -82.382706 -1.415561 13.007248 -1.282127 9.116872 -22.562293 25.39599 -0.001669 0.0 -0.00071 -0.001669 0.0 -0.00071 -9.652082 34.836103 11.199458 -97.626213 -18.527857 -171.261169 -173.587951 13.559298 -70.205492 -10.366782 -27.112435 -6.962453 -78.031549 38.688802 42.412068 -158.810726 -37.369514 82.349914 -150.886337 -16.291359 120.97834 -155.494539 -3.158118 118.954273 -10.975138 25.78994 7.640434 -156.730765 13.460316 140.389809 -31.706084 -66.110136 -46.279943 -62.422147 -83.585126 -88.196295 -45.216554 -48.152561 -43.992062 -136.861834 -13.417901 -135.090135 157.84871 -22.65802 -165.567486 -165.911124 -3.254401 147.567416 104.126058 56.053067 -56.912713 -54.23936 -57.303993 -49.151085 160.051929 2.213094 -88.877496 120.14272 7.360267 -56.402152 -12.217385 -21.784476 5.120322 149.125779 0.885393 -109.886746 0.571803 1.6482 -0.322464 172.063152 -31.346279 -144.105852 0.059985 -3.429884 1.079111 75.43157 78.832236 -89.113571 55.227498 -50.541283 53.896798 -10.683795 22.596554 -4.789237 0.0 0.000903 -0.000344 -10.636296 10.986949 148.69611 16.031748 -40.981563 -27.868313 -86.135536 -7.326519 -160.376192 0.0 0.000903 -0.000344 91.737133 -50.976481 0.0 -84.451646 4.340597 -0.610708 149.643959 16.203132 -88.434326
0.0457 50.916 -0.0513 -162.771279 22.162038 -168.25312 12.786675 6.174191 84.992945 -3.770459 -5.153683 -82.26001 2.919466 12.949546 21.93925 -5.307472 -22.572953 -0.86636 -0.004452 -0.0 0.000675 -0.004452 -0.0 0.000675 -85.537617 68.181484 88.688764 -122.751834 -27.242102 134.136821 82.661681 -57.670672 -78.465194 -130.272084 49.436694 108.734114 -12.926487 12.051683 3.309267 -152.874258 -57.554913 109.94161 -50.384981 40.826681 40.025173 -67.699743 50.43395 47.783236 -36.034103 51.723855 29.831485 42.897316 -69.729859 17.208914 -0.022211 -1.725143 -0.542536 9.220077 14.191356 1.883153 0.552373 1.455356 0.5088 10.028244 24.77594 5.921931 155.614292 -4.236283 -161.991335 38.937526 -10.25099 23.408417 -18.290812 4.623847 64.223511 -151.120439 -35.637087 -141.647028 -51.060156 -41.203375 -12.857579 113.246258 30.158108 -87.072702 141.998834 -0.613865 -116.931665 168.794552 -26.756209 -118.582397 -89.035752 -81.392637 -59.761619 -179.924117 -48.662633 -141.183923 145.119853 0.185356 179.186819 145.05576 -50.808221 167.33964 -19.598339 67.70792 -13.094698 168.975547 70.845463 146.636649 -179.998542 75.749869 -0.001505 108.56132 79.702457 -108.282378 1.30587 -36.902869 132.285667 -71.502302 -25.595099 7.917271 -0.000527 0.001439 0.000677 93.808787 -52.091495 -86.060228 -96.660497 -72.631466 -142.399419 39.560829 47.952277 -146.949896
0.0585 50.8652 -0.0738 -162.757448 22.142458 -168.232675 15.199913 8.328296 -1.612316 2.582288 -6.314948 4.496541 7.537524 30.81942 153.465022 -20.175516 36.186304 -124.976361 -0.001647 -0.0 0.002576 -0.000986 -0.0 0.002429 -143.620557 38.233324 148.080402 -109.331979 7.221589 100.838521 -106.034087 48.265021 -122.115185 3.046902 -72.482968 -8.964886 93.027835 -51.084674 40.501702 -136.943984 19.444393 98.564528 179.293582 -59.502025 116.318474 145.000511 -66.772792 82.987586 -167.374673 -28.008542 145.269343 -166.290194 -13.645957 143.679672 0.000998 -0.060728 -0.019915 6.16763 33.625496 5.569353 -131.400614 -19.914286 -128.958798 -154.720955 36.409535 -146.174363 -0.163297 -0.99009 0.217981 -60.253071 -1.177076 -31.936363 175.668143 6.940384 -113.833854 -133.335683 -52.07962 -125.354423 164.699169 -2.371614 -89.585359 6.344391 -46.786851 -10.213617 140.163352 2.326282 -115.878479 -24.124455 -29.632148 9.32708 -3.587393 -10.959609 1.736477 -31.879945 -62.734525 -8.300491 7.3e-05 -0.018411 0.006326 80.837715 78.717395 -94.267746 -0.097088 0.258406 -0.092458 166.467244 71.595631 148.519015 -0.000223 -0.000706 0.000287 -10.015813 13.016519 2.082222 9.787083 32.814799 40.605814 -21.400719 -17.176069 -84.515039 0.066606 0.000197 0.049954 93.898509 -52.15996 -86.919456 -85.180053 -71.305255 -169.933499 -86.263184 81.029688 0.414321
0.0663 50.8165 -0.0957 -162.757777 22.143709 -168.226259 15.0759 8.323455 0.0 2.507533 -6.399514 2.872721 10.625555 18.69758 75.314743 -28.716531 -3.206696 -54.467817 0.001678 -0.0 -0.000827 -0.003365 -0.0 0.00547 4.239059 -44.742801 -8.64749 -91.125544 -30.703142 -93.01759 -0.974239 6.304669 -144.613942 -161.790926 12.09245 138.983736 -78.030624 38.688895 42.412792 28.506202 -28.884898 19.51106 -140.163114 2.326413 115.878832 -63.595679 56.776655 45.585991 -161.154225 -8.1607 143.46444 -42.505676 58.270591 36.600019 -69.297382 72.945919 87.017495 -94.185317 82.819445 103.224568 -142.0609 2.886329 -139.018797 34.970918 74.495976 -0.476383 -4.209041 -43.443142 8.383423 112.322276 0.989633 179.608891 31.795168 -14.431152 59.421219 -46.535971 -54.125853 -41.784446 7.75955 7.438671 -1.682016 111.462469 -3.324801 -100.659873 93.640307 40.181738 -78.833307 166.997648 -14.9674 -115.099816 0.5717 1.648127 -0.32339 170.083423 -25.713276 -144.314015 145.119168 0.310684 179.224542 148.085395 -43.197217 170.544779 149.470651 26.862926 145.483784 80.134503 -52.680008 79.380303 179.961332 75.748422 0.031815 102.794131 78.839894 180.0 45.042133 -13.576856 95.871827 -144.768603 53.286119 -122.258366 0.005323 -0.001324 0.003992 92.13172 -51.022241 2.846265 -87.672742 7.186175 -26.739544 82.498947 -48.771222 177.068381
